<?xml version="1.0" encoding="utf-8"?>
<!-- Generator: Adobe Illustrator 18.1.1, SVG Export Plug-In . SVG Version: 6.00 Build 0)  -->
<!DOCTYPE svg PUBLIC "-//W3C//DTD SVG 1.1 Tiny//EN" "http://www.w3.org/Graphics/SVG/1.1/DTD/svg11-tiny.dtd">
<svg version="1.1" baseProfile="tiny" id="specsavers_x5F_master_x5F_logo_x5F_rgb"
	 xmlns="http://www.w3.org/2000/svg" xmlns:xlink="http://www.w3.org/1999/xlink" x="0px" y="0px" viewBox="0 0 312.2 124.39"
	 xml:space="preserve">
<g>
	<rect x="34.03" y="37.89" fill="#FFFFFF" width="243.93" height="50.08"/>
	<g>
		<path fill="#009552" d="M101.2,53.13c-3.57,0-5.87,2.61-5.87,6.69v0.54h11.64v-0.54C106.97,55.74,104.71,53.13,101.2,53.13z"/>
		<path fill="#009552" d="M73.93,52.82c-1.88,0-4.04,0.15-5.04,0.35l-0.26,0.06v18.65l0.28,0.04c1.54,0.23,3.84,0.37,5.02,0.37
			c5.21,0,5.88-4.14,5.88-7.75v-4C79.81,56.94,79.14,52.82,73.93,52.82z"/>
		<path fill="#009552" d="M147.59,92.16c-0.03-0.02-0.06-0.06-0.08-0.08c-0.28-0.33-0.56-0.66-0.83-0.97
			c-0.04-0.06-0.08-0.1-0.12-0.17c-0.27-0.31-0.53-0.64-0.79-0.95c-0.04-0.06-0.08-0.12-0.12-0.17c-0.26-0.33-0.51-0.66-0.76-1
			c-0.03-0.02-0.06-0.06-0.08-0.1c-1.1-1.47-2.09-2.96-3-4.5c0,0,0,0,0-0.02c-0.19-0.31-0.36-0.6-0.54-0.93
			c-0.06-0.1-0.12-0.21-0.19-0.31c-0.14-0.29-0.3-0.56-0.45-0.85c-0.07-0.15-0.16-0.29-0.23-0.44c-0.13-0.25-0.27-0.52-0.39-0.79
			c-0.08-0.17-0.16-0.33-0.24-0.5c-0.12-0.25-0.24-0.5-0.35-0.77c-0.08-0.17-0.17-0.35-0.24-0.52c-0.11-0.25-0.22-0.5-0.32-0.77
			c-0.07-0.19-0.16-0.37-0.23-0.56c-0.09-0.25-0.2-0.48-0.29-0.73c-0.07-0.21-0.15-0.41-0.22-0.62c-0.08-0.23-0.18-0.46-0.25-0.7
			c-0.09-0.27-0.19-0.54-0.27-0.81c-0.1-0.33-0.21-0.66-0.3-1.02c-0.08-0.27-0.17-0.54-0.24-0.79c-0.05-0.21-0.09-0.41-0.14-0.62
			c-0.06-0.25-0.13-0.5-0.2-0.77c-0.04-0.19-0.08-0.39-0.12-0.6c-0.06-0.27-0.11-0.52-0.17-0.77c-0.04-0.21-0.07-0.42-0.11-0.62
			c-0.04-0.27-0.09-0.52-0.13-0.79c-0.03-0.19-0.06-0.39-0.09-0.6c-0.03-0.27-0.07-0.54-0.1-0.81c-0.02-0.19-0.04-0.39-0.07-0.6
			c-0.02-0.27-0.05-0.56-0.07-0.83c-0.02-0.19-0.03-0.37-0.05-0.56c-0.02-0.33-0.03-0.64-0.05-0.95c-0.01-0.17-0.01-0.31-0.02-0.48
			c-0.02-0.48-0.03-0.95-0.03-1.41c0-0.5,0.01-0.95,0.03-1.43c0.01-0.17,0.01-0.31,0.02-0.48c0.02-0.31,0.03-0.62,0.05-0.93
			c0.02-0.19,0.03-0.37,0.05-0.56c0.02-0.29,0.05-0.58,0.07-0.85c0.03-0.21,0.05-0.39,0.07-0.6c0.03-0.27,0.07-0.54,0.1-0.81
			c0.03-0.19,0.06-0.39,0.09-0.6c0.04-0.25,0.09-0.52,0.13-0.79c0.04-0.21,0.07-0.39,0.11-0.6c0.05-0.27,0.1-0.52,0.17-0.79
			c0.04-0.19,0.08-0.39,0.12-0.6c0.06-0.25,0.12-0.52,0.2-0.79c0.05-0.19,0.09-0.37,0.14-0.58c0.08-0.31,0.18-0.6,0.26-0.91
			c0.09-0.31,0.2-0.62,0.29-0.95c0.08-0.25,0.17-0.5,0.25-0.76c0.08-0.23,0.17-0.46,0.25-0.68c0.07-0.21,0.14-0.42,0.22-0.63
			c0.09-0.24,0.2-0.48,0.29-0.71c0.07-0.2,0.15-0.38,0.23-0.58c0.1-0.25,0.21-0.49,0.31-0.74c0.08-0.19,0.17-0.36,0.24-0.54
			c0.12-0.26,0.24-0.51,0.35-0.77c0.08-0.17,0.17-0.32,0.24-0.49c0.13-0.27,0.26-0.53,0.39-0.8c0.07-0.13,0.16-0.28,0.23-0.42
			c0.14-0.28,0.29-0.56,0.45-0.84c0.05-0.09,0.11-0.19,0.17-0.29c0.82-1.46,1.72-2.89,2.7-4.29c0.03-0.04,0.05-0.08,0.08-0.12
			c0.23-0.32,0.47-0.65,0.69-0.96c0.05-0.07,0.1-0.13,0.16-0.21c0.24-0.31,0.48-0.62,0.71-0.93c0.05-0.07,0.1-0.13,0.16-0.2
			c0.25-0.32,0.5-0.63,0.76-0.94c0.05-0.05,0.09-0.1,0.13-0.17c0.27-0.32,0.55-0.64,0.83-0.97c0.01-0.01,0.03-0.03,0.04-0.05
			c2.18-2.49,4.61-4.87,7.29-7.1c0.01-0.01,0.01-0.02,0.02-0.02c0.38-0.32,0.77-0.63,1.16-0.95C140.12,12.7,116.47,4.7,90.03,4.7
			C42.36,4.7,3.73,30.73,3.73,62.83c0,32.09,38.64,58.11,86.31,58.11c26.51,0,50.22-8.06,66.06-20.72h-0.01
			C152.92,97.72,150.08,95.02,147.59,92.16z M57,73.23c-1.84,2.26-5.21,4.1-11.23,4.1c0,0,0,0-0.01,0c-3.51,0-6.33-0.29-9.14-0.93
			c-0.35-0.06-0.79-0.31-0.8-0.81v-3.73c0-0.46,0.4-0.75,0.83-0.75c2.1,0.25,7.37,0.52,9.21,0.52c4.43-0.02,6.24-1.45,6.25-4.91
			c0-2.22-1.14-3.29-4.52-5.28l-6.85-4.1c-4.26-2.51-6.01-5.22-6.01-9.28c0-3.18,1.08-5.6,3.21-7.21c2.13-1.62,5.31-2.41,9.52-2.41
			c3.31,0,8.11,0.51,9.91,0.93c0.33,0.06,0.75,0.29,0.75,0.76v3.83c0,0.39-0.28,0.7-0.73,0.7c-3.85-0.35-7.2-0.53-10.24-0.53
			c-3.81,0.01-5.68,1.33-5.68,3.93c0,1.85,0.94,2.92,4.37,4.83l6.23,3.46c5.01,2.78,7.1,5.82,7.09,10.38
			C59.17,68.32,58.84,70.97,57,73.23z M86,64.55c0,8.31-4.17,12.7-12.08,12.7c-1.44,0-3.23-0.12-4.93-0.37l-0.37-0.04v9.55
			c0,0.39-0.32,0.72-0.7,0.72h-4.78c-0.39,0-0.71-0.33-0.71-0.72V50.29c0-0.59,0.06-0.81,1.16-1.1c3.25-0.84,7.12-1.34,10.34-1.34
			c7.9,0,12.08,4.38,12.08,12.69V64.55z M113.23,63.62c0,0.85-0.35,0.97-0.73,0.97H95.28v0.48c0,2.09,0.63,6.92,6.55,6.92
			c3.68,0,7.23-0.31,9.54-0.52h0.16c0.19,0,0.61,0.04,0.61,0.43v3.44c0,0.71-0.08,0.91-0.82,1.04c-3.23,0.58-5.27,0.87-10.01,0.87
			c-2.04,0-12.23-0.62-12.23-12.7v-3.83c0-8.06,4.54-12.85,12.13-12.85c7.42,0,12.03,4.92,12.03,12.85V63.62z M135.57,52.93
			c0,0.39-0.38,0.46-0.71,0.46c-2.04-0.25-3.29-0.35-6.73-0.35c-1.99,0-5.3,0.91-5.3,7.11v4.83c0,6.19,3.32,7.13,5.3,7.13
			c3.44,0,4.69-0.12,6.69-0.37h0.16c0.22,0,0.6,0.06,0.6,0.46v3.38c0,0.66-0.09,0.85-0.84,1.04c-0.6,0.14-2.84,0.66-6.61,0.66
			c-7.21,0-11.51-4.6-11.51-12.29v-4.83c0-7.69,4.3-12.27,11.51-12.27c3.77,0,6.01,0.51,6.62,0.66c0.74,0.18,0.83,0.37,0.83,1.04
			V52.93z"/>
		<path fill="#009552" d="M176.3,64.71c-0.01,0.31-0.02,0.62-0.05,0.93c-0.01,0.19-0.03,0.37-0.04,0.56
			c-0.03,0.29-0.05,0.58-0.08,0.85c-0.02,0.21-0.04,0.39-0.07,0.6c-0.03,0.27-0.06,0.54-0.1,0.81c-0.03,0.19-0.06,0.39-0.09,0.6
			c-0.04,0.25-0.08,0.52-0.12,0.79c-0.04,0.21-0.07,0.39-0.11,0.6c-0.05,0.27-0.11,0.52-0.17,0.77c-0.04,0.21-0.08,0.42-0.13,0.62
			c-0.02,0.08-0.03,0.17-0.05,0.25c0.95-0.27,1.92-0.64,2.81-1.14l0.17-0.08v-6.9h-1.9c-0.01,0.08-0.01,0.19-0.01,0.27
			C176.32,64.4,176.31,64.55,176.3,64.71z"/>
		<path fill="#009552" d="M221.99,4.59c-26.5,0-50.21,8.05-66.04,20.71l0,0l0,0c0,0,0,0.01,0.01,0.01c3.15,2.51,5.99,5.2,8.48,8.05
			c0.03,0.03,0.06,0.07,0.09,0.1c0.28,0.32,0.55,0.64,0.82,0.96c0.05,0.06,0.09,0.11,0.13,0.17c0.26,0.32,0.53,0.63,0.78,0.95
			c0.04,0.06,0.09,0.11,0.13,0.18c0.26,0.32,0.5,0.64,0.75,0.96c0.03,0.05,0.07,0.09,0.09,0.15c1.09,1.45,2.08,2.94,2.98,4.45
			c0.01,0.01,0.01,0.02,0.02,0.03c0.18,0.31,0.35,0.61,0.53,0.92c0.06,0.11,0.12,0.23,0.19,0.34c0.16,0.27,0.3,0.55,0.45,0.83
			c0.08,0.15,0.16,0.29,0.23,0.44c0.13,0.27,0.27,0.53,0.4,0.79c0.07,0.17,0.16,0.33,0.24,0.5c0.11,0.26,0.24,0.51,0.35,0.77
			c0.08,0.18,0.16,0.36,0.24,0.54c0.1,0.25,0.22,0.5,0.31,0.75c0.08,0.19,0.16,0.38,0.24,0.57c0.01,0.04,0.03,0.07,0.04,0.11
			c7.28,0.03,10.97,3.26,10.97,9.58v18.67c0,0.39-0.31,0.72-0.7,0.72h-4.41c-0.39,0-0.71-0.33-0.71-0.72V74.7l-0.5,0.31
			c-1.44,0.87-2.88,1.49-4.29,1.86c-0.03,0.08-0.07,0.17-0.1,0.27c-0.09,0.23-0.19,0.48-0.28,0.71c-0.08,0.21-0.16,0.39-0.24,0.58
			c-0.09,0.25-0.21,0.5-0.31,0.75c-0.07,0.19-0.16,0.35-0.24,0.54c-0.11,0.25-0.23,0.5-0.35,0.77c-0.07,0.17-0.16,0.33-0.24,0.5
			c-0.12,0.25-0.26,0.52-0.39,0.79c-0.07,0.15-0.15,0.27-0.22,0.41c-0.16,0.29-0.3,0.56-0.46,0.85c-0.05,0.08-0.1,0.19-0.16,0.29
			c-0.82,1.45-1.72,2.88-2.7,4.29c-0.03,0.04-0.06,0.08-0.09,0.12c-0.23,0.33-0.46,0.64-0.69,0.97c-0.05,0.06-0.1,0.12-0.14,0.19
			c-0.24,0.31-0.48,0.62-0.71,0.93c-0.05,0.08-0.11,0.14-0.17,0.21c-0.25,0.31-0.5,0.62-0.76,0.93c-0.04,0.06-0.09,0.12-0.13,0.17
			c-0.27,0.33-0.54,0.66-0.82,0.97c-0.02,0.02-0.04,0.04-0.05,0.06c-2.16,2.49-4.6,4.87-7.28,7.11c-0.01,0-0.02,0-0.02,0.02
			c-0.38,0.31-0.78,0.62-1.16,0.93l0,0c15.83,12.6,39.49,20.61,65.9,20.61c47.69,0,86.33-26.02,86.33-58.11
			C308.32,30.61,269.68,4.59,221.99,4.59z M211.47,49l-6.53,23.61c-0.85,3.07-2.92,4.64-6.17,4.64c-3.23,0-5.28-1.57-6.11-4.64
			c0,0-6.55-23.61-6.57-23.66l-0.02-0.22c0-0.29,0.21-0.51,0.5-0.51h5.2c0.33,0,0.6,0.3,0.73,0.79l4.97,21.73
			c0.21,1.01,0.66,1.55,1.31,1.55c0.64,0,1.08-0.54,1.3-1.55l4.97-21.73c0.12-0.55,0.48-0.79,0.77-0.79h5.2
			c0.29,0,0.5,0.22,0.5,0.51C211.51,48.73,211.49,48.95,211.47,49z M236.62,63.62c0,0.85-0.33,0.97-0.71,0.97h-17.24v0.48
			c0,2.09,0.64,6.92,6.55,6.92c3.67,0,7.23-0.31,9.53-0.52h0.17c0.19,0,0.6,0.04,0.6,0.43v3.44c0,0.71-0.06,0.91-0.81,1.04
			c-3.23,0.58-5.28,0.87-10.01,0.87c-2.05,0-12.24-0.62-12.24-12.7v-3.83c0-8.06,4.54-12.85,12.14-12.85
			c7.42,0,12.02,4.92,12.02,12.85V63.62z M254.75,52.28c0,0.39-0.31,0.7-0.72,0.7c-2.57,0-4.74,0.58-7.31,1.91l-0.17,0.1v21.07
			c0,0.39-0.33,0.77-0.7,0.77h-4.79c-0.37,0-0.71-0.37-0.71-0.77V48.91c0-0.39,0.31-0.71,0.71-0.71h4.52c0.39,0,0.73,0.32,0.73,0.71
			v1.76l0.52-0.41c2.59-2,5.35-2.42,7.21-2.42c0.41,0,0.72,0.32,0.72,0.71V52.28z M267.47,77.25c-2.15,0-6.38-0.27-9.22-1.04
			c-0.48-0.12-0.73-0.42-0.73-0.87v-3.11c0-0.25,0.23-0.52,0.56-0.52h0.17c2.49,0.31,7.15,0.58,8.74,0.58
			c3.52,0,4.02-1.37,4.02-2.82c0-1.2-0.79-1.88-2.44-2.92c0,0-7.11-4.35-7.11-4.37c-2.63-1.6-4.21-4.16-4.21-6.88
			c0-5.01,3.13-7.45,9.53-7.45c4.08,0,5.88,0.37,8.68,0.97c0.46,0.11,0.68,0.4,0.68,0.88v3c0,0.44-0.17,0.66-0.5,0.66h-0.17
			c-1.47-0.21-5.16-0.56-8.12-0.56c-1.93,0-3.92,0.29-3.92,2.49c0,1.08,1.04,1.7,2.24,2.4l6.79,4.16c4.45,2.69,4.83,5.34,4.83,7.6
			C277.31,74.26,273.54,77.25,267.47,77.25z"/>
		<path fill="#009552" d="M178.24,60.05v-2.61c0-2.96-1.16-4.06-3.1-4.39c0.05,0.25,0.11,0.5,0.18,0.75
			c0.04,0.19,0.09,0.39,0.13,0.6c0.05,0.25,0.11,0.52,0.16,0.77c0.04,0.21,0.08,0.41,0.11,0.62c0.05,0.25,0.09,0.52,0.13,0.79
			c0.03,0.19,0.06,0.39,0.09,0.6c0.04,0.27,0.07,0.54,0.1,0.81c0.03,0.19,0.05,0.39,0.07,0.6c0.03,0.27,0.05,0.56,0.08,0.83
			c0.01,0.19,0.03,0.37,0.04,0.56c0,0.04,0.01,0.06,0.01,0.08H178.24z"/>
		<path fill="#009552" d="M224.6,53.13c-3.58,0-5.88,2.61-5.88,6.69v0.54h11.64v-0.54C230.36,55.74,228.11,53.13,224.6,53.13z"/>
		<rect x="156.09" y="100.22" fill="#007446" width="0" height="0"/>
		<path fill="#007446" d="M135.99,57.88c0.03-0.27,0.07-0.54,0.1-0.81C136.06,57.34,136.02,57.61,135.99,57.88z"/>
		<path fill="#007446" d="M135.68,62.72c0-0.5,0.01-0.95,0.03-1.43C135.7,61.77,135.68,62.23,135.68,62.72z"/>
		<path fill="#007446" d="M135.84,59.33c0.02-0.29,0.05-0.58,0.07-0.85C135.89,58.75,135.86,59.04,135.84,59.33z"/>
		<path fill="#007446" d="M141.8,84.23c0,0,0,0,0-0.02C141.8,84.23,141.8,84.23,141.8,84.23z"/>
		<path fill="#007446" d="M135.74,60.82c0.01-0.31,0.03-0.62,0.05-0.93C135.77,60.2,135.76,60.51,135.74,60.82z"/>
		<path fill="#007446" d="M144.88,88.83c-0.03-0.02-0.06-0.06-0.08-0.1C144.82,88.77,144.85,88.81,144.88,88.83z"/>
		<path fill="#007446" d="M138.85,78.34c-0.07-0.19-0.16-0.37-0.23-0.56C138.7,77.97,138.78,78.16,138.85,78.34z"/>
		<path fill="#007446" d="M145.76,89.99c-0.04-0.06-0.08-0.12-0.12-0.17C145.68,89.86,145.72,89.93,145.76,89.99z"/>
		<path fill="#007446" d="M136.92,72.5c-0.06-0.25-0.13-0.5-0.2-0.77C136.78,72.01,136.86,72.26,136.92,72.5z"/>
		<path fill="#007446" d="M136.6,71.14c-0.06-0.27-0.11-0.52-0.17-0.77C136.48,70.62,136.53,70.87,136.6,71.14z"/>
		<path fill="#007446" d="M136.32,69.75c-0.04-0.27-0.09-0.52-0.13-0.79C136.22,69.23,136.28,69.48,136.32,69.75z"/>
		<path fill="#007446" d="M137.87,75.74c-0.09-0.27-0.19-0.54-0.27-0.81C137.68,75.2,137.78,75.47,137.87,75.74z"/>
		<path fill="#007446" d="M137.3,73.91c-0.08-0.27-0.17-0.54-0.24-0.79C137.14,73.37,137.22,73.64,137.3,73.91z"/>
		<path fill="#007446" d="M135.72,64.13c-0.02-0.48-0.03-0.95-0.03-1.41C135.68,63.18,135.7,63.66,135.72,64.13z"/>
		<path fill="#007446" d="M138.34,77.06c-0.07-0.21-0.15-0.41-0.22-0.62C138.19,76.65,138.26,76.85,138.34,77.06z"/>
		<path fill="#007446" d="M135.79,65.56c-0.02-0.33-0.03-0.64-0.05-0.95C135.76,64.92,135.77,65.23,135.79,65.56z"/>
		<path fill="#007446" d="M135.91,66.95c-0.02-0.27-0.05-0.56-0.07-0.83C135.86,66.39,135.89,66.68,135.91,66.95z"/>
		<path fill="#007446" d="M141.26,83.28c-0.06-0.1-0.12-0.21-0.19-0.31C141.13,83.07,141.2,83.17,141.26,83.28z"/>
		<path fill="#007446" d="M140.63,82.12c-0.07-0.15-0.16-0.29-0.23-0.44C140.47,81.83,140.55,81.97,140.63,82.12z"/>
		<path fill="#007446" d="M140,80.89c-0.08-0.17-0.16-0.33-0.24-0.5C139.85,80.56,139.92,80.73,140,80.89z"/>
		<path fill="#007446" d="M136.09,68.36c-0.03-0.27-0.07-0.54-0.1-0.81C136.02,67.82,136.06,68.09,136.09,68.36z"/>
		<path fill="#007446" d="M139.41,79.63c-0.08-0.17-0.17-0.35-0.24-0.52C139.25,79.28,139.33,79.46,139.41,79.63z"/>
		<path fill="#007446" d="M145.57,35.7c0.05-0.07,0.1-0.13,0.16-0.2C145.67,35.56,145.62,35.63,145.57,35.7z"/>
		<path fill="#007446" d="M146.48,34.56c0.05-0.05,0.09-0.1,0.13-0.17C146.57,34.46,146.53,34.51,146.48,34.56z"/>
		<path fill="#007446" d="M144.7,36.84c0.05-0.07,0.1-0.13,0.16-0.21C144.8,36.7,144.75,36.77,144.7,36.84z"/>
		<path fill="#007446" d="M143.92,37.93c0.03-0.04,0.05-0.08,0.08-0.12C143.97,37.84,143.95,37.88,143.92,37.93z"/>
		<path fill="#007446" d="M147.44,33.42c0.01-0.01,0.03-0.03,0.04-0.05C147.47,33.39,147.45,33.41,147.44,33.42z"/>
		<path fill="#007446" d="M141.05,42.5c0.05-0.09,0.11-0.19,0.17-0.29C141.16,42.32,141.1,42.41,141.05,42.5z"/>
		<path fill="#007446" d="M136.18,56.47c0.04-0.25,0.09-0.52,0.13-0.79C136.28,55.95,136.22,56.22,136.18,56.47z"/>
		<path fill="#007446" d="M147.59,92.16c-0.03-0.02-0.06-0.06-0.08-0.08C147.53,92.1,147.56,92.14,147.59,92.16z"/>
		<path fill="#007446" d="M154.78,26.27c0.01-0.01,0.01-0.02,0.02-0.02C154.79,26.25,154.79,26.26,154.78,26.27z"/>
		<path fill="#007446" d="M146.68,91.11c-0.04-0.06-0.08-0.1-0.12-0.17C146.59,91,146.63,91.05,146.68,91.11z"/>
		<polygon fill="#007446" points="156.08,100.22 156.09,100.22 156.09,100.22 		"/>
		<path fill="#007446" d="M137.06,52.32c0.08-0.31,0.18-0.6,0.26-0.91C137.24,51.72,137.15,52.01,137.06,52.32z"/>
		<path fill="#007446" d="M137.61,50.46c0.08-0.25,0.17-0.5,0.25-0.76C137.78,49.96,137.69,50.21,137.61,50.46z"/>
		<path fill="#007446" d="M140.38,43.77c0.07-0.13,0.16-0.28,0.23-0.42C140.53,43.49,140.45,43.63,140.38,43.77z"/>
		<path fill="#007446" d="M136.43,55.08c0.05-0.27,0.1-0.52,0.17-0.79C136.53,54.56,136.48,54.81,136.43,55.08z"/>
		<path fill="#007446" d="M136.72,53.69c0.06-0.25,0.12-0.52,0.2-0.79C136.85,53.17,136.78,53.44,136.72,53.69z"/>
		<path fill="#007446" d="M139.75,45.05c0.08-0.17,0.17-0.32,0.24-0.49C139.91,44.73,139.83,44.89,139.75,45.05z"/>
		<path fill="#007446" d="M138.11,49.02c0.07-0.21,0.14-0.42,0.22-0.63C138.25,48.6,138.18,48.81,138.11,49.02z"/>
		<path fill="#007446" d="M139.16,46.36c0.08-0.19,0.17-0.36,0.24-0.54C139.32,46,139.24,46.17,139.16,46.36z"/>
		<path fill="#007446" d="M138.62,47.67c0.07-0.2,0.15-0.38,0.23-0.58C138.76,47.29,138.69,47.48,138.62,47.67z"/>
		<path fill="#007446" d="M170.78,42.23c0.06,0.11,0.12,0.23,0.19,0.34C170.9,42.46,170.84,42.35,170.78,42.23z"/>
		<path fill="#007446" d="M170.23,41.28c0.01,0.01,0.01,0.02,0.02,0.03C170.24,41.3,170.24,41.29,170.23,41.28z"/>
		<path fill="#007446" d="M171.41,43.41c0.08,0.15,0.16,0.29,0.23,0.44C171.57,43.7,171.49,43.55,171.41,43.41z"/>
		<path fill="#007446" d="M172.04,44.63c0.07,0.17,0.16,0.33,0.24,0.5C172.2,44.96,172.12,44.79,172.04,44.63z"/>
		<path fill="#007446" d="M166.27,35.54c0.04,0.06,0.09,0.11,0.13,0.18C166.37,35.66,166.32,35.61,166.27,35.54z"/>
		<path fill="#007446" d="M155.96,25.3L155.96,25.3c0,0,0,0.01,0.01,0.01C155.96,25.31,155.96,25.3,155.96,25.3z"/>
		<path fill="#007446" d="M164.45,33.36c0.03,0.03,0.06,0.07,0.09,0.1C164.51,33.43,164.48,33.39,164.45,33.36z"/>
		<path fill="#007446" d="M167.15,36.68c0.03,0.05,0.07,0.09,0.09,0.15C167.23,36.78,167.19,36.73,167.15,36.68z"/>
		<path fill="#007446" d="M173.18,47.18c0.08,0.19,0.16,0.38,0.24,0.57C173.34,47.56,173.27,47.36,173.18,47.18z"/>
		<path fill="#007446" d="M165.36,34.42c0.05,0.06,0.09,0.11,0.13,0.17C165.46,34.54,165.41,34.49,165.36,34.42z"/>
		<path fill="#007446" d="M170.99,83.03c-0.05,0.08-0.1,0.19-0.16,0.29C170.88,83.21,170.94,83.11,170.99,83.03z"/>
		<path fill="#007446" d="M167.34,88.7c-0.05,0.06-0.1,0.12-0.14,0.19C167.24,88.83,167.29,88.77,167.34,88.7z"/>
		<path fill="#007446" d="M166.48,89.82c-0.05,0.08-0.11,0.14-0.17,0.21C166.37,89.97,166.43,89.91,166.48,89.82z"/>
		<path fill="#007446" d="M165.56,90.96c-0.04,0.06-0.09,0.12-0.13,0.17C165.47,91.09,165.52,91.02,165.56,90.96z"/>
		<path fill="#007446" d="M157.27,99.27c-0.01,0-0.02,0-0.02,0.02C157.25,99.27,157.26,99.27,157.27,99.27z"/>
		<path fill="#007446" d="M164.61,92.1c-0.02,0.02-0.04,0.04-0.05,0.06C164.57,92.14,164.59,92.12,164.61,92.1z"/>
		<path fill="#007446" d="M172.88,79.17c-0.07,0.19-0.16,0.35-0.24,0.54C172.73,79.53,172.81,79.36,172.88,79.17z"/>
		<path fill="#007446" d="M173.43,77.85c-0.08,0.21-0.16,0.39-0.24,0.58C173.28,78.24,173.35,78.06,173.43,77.85z"/>
		<path fill="#007446" d="M168.13,87.61c-0.03,0.04-0.06,0.08-0.09,0.12C168.07,87.69,168.1,87.65,168.13,87.61z"/>
		<path fill="#007446" d="M172.29,80.48c-0.07,0.17-0.16,0.33-0.24,0.5C172.14,80.81,172.22,80.65,172.29,80.48z"/>
		<path fill="#007446" d="M171.66,81.76c-0.07,0.15-0.15,0.27-0.22,0.41C171.52,82.03,171.59,81.91,171.66,81.76z"/>
		<path fill="#007446" d="M172.63,45.89c0.08,0.18,0.16,0.36,0.24,0.54C172.79,46.25,172.72,46.07,172.63,45.89z"/>
		<path fill="#007446" d="M175.86,69.06c-0.04,0.25-0.08,0.52-0.12,0.79C175.77,69.58,175.81,69.31,175.86,69.06z"/>
		<path fill="#007446" d="M176.05,67.66c-0.03,0.27-0.06,0.54-0.1,0.81C175.99,68.19,176.02,67.92,176.05,67.66z"/>
		<path fill="#007446" d="M175.13,53.05c0.06,0.25,0.12,0.5,0.19,0.75c-0.06-0.25-0.12-0.5-0.18-0.75
			C175.13,53.05,175.13,53.05,175.13,53.05z"/>
		<path fill="#007446" d="M176.25,59.97c0,0.04,0,0.06,0.01,0.08l0,0C176.26,60.03,176.25,60.01,176.25,59.97z"/>
		<path fill="#007446" d="M176.3,64.71c-0.01,0.31-0.02,0.62-0.05,0.93C176.28,65.34,176.29,65.02,176.3,64.71z"/>
		<path fill="#007446" d="M176.21,66.21c-0.03,0.29-0.05,0.58-0.08,0.85C176.16,66.79,176.18,66.5,176.21,66.21z"/>
		<polygon fill="#007446" points="156.09,100.22 156.09,100.22 156.09,100.22 		"/>
		<path fill="#007446" d="M175.62,70.45c-0.05,0.27-0.11,0.52-0.17,0.77C175.5,70.97,175.57,70.72,175.62,70.45z"/>
		<path fill="#007446" d="M176.33,64.24c0-0.08,0-0.19,0.01-0.27h-0.01C176.33,64.05,176.33,64.15,176.33,64.24z"/>
		<path fill="#007446" d="M175.27,72.09L175.27,72.09c0.02-0.08,0.03-0.17,0.05-0.25C175.3,71.92,175.28,72.01,175.27,72.09z"/>
		<path fill="#007446" d="M175.61,55.16c-0.04-0.25-0.1-0.52-0.16-0.77C175.5,54.64,175.57,54.91,175.61,55.16z"/>
		<path fill="#007446" d="M173.71,77.14c0.03-0.1,0.07-0.19,0.1-0.27c-0.01,0-0.01,0-0.01,0C173.77,76.96,173.74,77.04,173.71,77.14
			z"/>
		<path fill="#007446" d="M176.05,57.98c-0.03-0.27-0.06-0.54-0.1-0.81C175.99,57.44,176.02,57.71,176.05,57.98z"/>
		<path fill="#007446" d="M175.86,56.57c-0.04-0.27-0.08-0.54-0.13-0.79C175.77,56.03,175.81,56.3,175.86,56.57z"/>
		<path fill="#007446" d="M176.21,59.41c-0.03-0.27-0.05-0.56-0.08-0.83C176.16,58.85,176.18,59.14,176.21,59.41z"/>
		<path fill="#00693C" d="M175.45,71.22c0.05-0.25,0.11-0.5,0.17-0.77c0.04-0.21,0.07-0.39,0.11-0.6c0.04-0.27,0.08-0.54,0.12-0.79
			c0.03-0.21,0.06-0.41,0.09-0.6c0.04-0.27,0.07-0.54,0.1-0.81c0.03-0.21,0.05-0.39,0.07-0.6c0.03-0.27,0.05-0.56,0.08-0.85
			c0.01-0.19,0.03-0.37,0.04-0.56c0.03-0.31,0.04-0.62,0.05-0.93c0.01-0.17,0.02-0.31,0.03-0.48c0-0.08,0-0.19,0-0.27h-1.69
			c-5.07,0-6.08,1.8-6.08,4.72v0.21c0,2.96,1.54,3.54,4.06,3.54c0.84,0,1.74-0.12,2.64-0.35c0.01-0.08,0.03-0.17,0.05-0.25
			C175.37,71.63,175.41,71.43,175.45,71.22z"/>
		<path fill="#00693C" d="M154.78,26.27c-2.68,2.23-5.12,4.61-7.29,7.1c-0.01,0.02-0.03,0.04-0.04,0.05
			c-0.28,0.33-0.56,0.65-0.83,0.97c-0.04,0.06-0.08,0.11-0.13,0.17c-0.26,0.31-0.51,0.62-0.76,0.94c-0.05,0.06-0.1,0.12-0.16,0.2
			c-0.24,0.31-0.48,0.62-0.71,0.93c-0.05,0.07-0.1,0.13-0.16,0.21c-0.23,0.31-0.47,0.64-0.69,0.96c-0.03,0.04-0.05,0.08-0.08,0.12
			c-0.98,1.4-1.88,2.83-2.7,4.29c-0.05,0.1-0.11,0.2-0.17,0.29c-0.16,0.28-0.3,0.56-0.45,0.84c-0.07,0.15-0.16,0.29-0.23,0.42
			c-0.13,0.27-0.26,0.53-0.39,0.8c-0.07,0.17-0.16,0.32-0.24,0.49c-0.11,0.26-0.23,0.51-0.35,0.77c-0.07,0.18-0.16,0.35-0.24,0.54
			c-0.1,0.25-0.21,0.49-0.31,0.74c-0.08,0.2-0.16,0.38-0.23,0.58c-0.09,0.24-0.2,0.48-0.29,0.71c-0.07,0.21-0.14,0.42-0.22,0.63
			c-0.08,0.23-0.17,0.46-0.25,0.68c-0.08,0.26-0.17,0.51-0.25,0.76c-0.09,0.33-0.2,0.64-0.29,0.95c-0.08,0.31-0.18,0.6-0.26,0.91
			c-0.05,0.21-0.09,0.39-0.14,0.58c-0.07,0.27-0.13,0.54-0.2,0.79c-0.04,0.21-0.08,0.41-0.12,0.6c-0.06,0.27-0.11,0.52-0.17,0.79
			c-0.04,0.21-0.07,0.39-0.11,0.6c-0.04,0.27-0.09,0.54-0.13,0.79c-0.03,0.21-0.06,0.41-0.09,0.6c-0.03,0.27-0.07,0.54-0.1,0.81
			c-0.02,0.21-0.04,0.39-0.07,0.6c-0.02,0.27-0.05,0.56-0.07,0.85c-0.02,0.19-0.03,0.37-0.05,0.56c-0.02,0.31-0.04,0.62-0.05,0.93
			c-0.01,0.17-0.01,0.31-0.02,0.48c-0.02,0.48-0.03,0.93-0.03,1.43c0,0.46,0.01,0.93,0.03,1.41c0.01,0.17,0.01,0.31,0.02,0.48
			c0.02,0.31,0.03,0.62,0.05,0.95c0.02,0.19,0.03,0.37,0.05,0.56c0.02,0.27,0.05,0.56,0.07,0.83c0.03,0.21,0.05,0.42,0.07,0.6
			c0.03,0.27,0.07,0.54,0.1,0.81c0.03,0.21,0.06,0.42,0.09,0.6c0.04,0.27,0.09,0.52,0.13,0.79c0.04,0.21,0.07,0.42,0.11,0.62
			c0.05,0.25,0.1,0.5,0.17,0.77c0.04,0.21,0.08,0.41,0.12,0.6c0.06,0.27,0.13,0.52,0.2,0.77c0.05,0.21,0.09,0.41,0.14,0.62
			c0.07,0.25,0.16,0.52,0.24,0.79c0.09,0.35,0.2,0.68,0.3,1.02c0.08,0.27,0.18,0.54,0.27,0.81c0.07,0.25,0.17,0.48,0.25,0.7
			c0.07,0.21,0.15,0.41,0.22,0.62c0.09,0.25,0.2,0.48,0.29,0.73c0.07,0.19,0.16,0.37,0.23,0.56c0.1,0.27,0.21,0.52,0.32,0.77
			c0.07,0.17,0.16,0.35,0.24,0.52c0.11,0.27,0.23,0.52,0.35,0.77c0.08,0.17,0.16,0.33,0.24,0.5c0.12,0.27,0.26,0.54,0.39,0.79
			c0.07,0.14,0.16,0.29,0.23,0.44c0.15,0.29,0.3,0.56,0.45,0.85c0.06,0.1,0.12,0.21,0.19,0.31c0.18,0.33,0.35,0.62,0.54,0.93
			c0,0.02,0,0.02,0,0.02c0.91,1.53,1.91,3.02,3,4.5c0.02,0.04,0.05,0.08,0.08,0.1c0.25,0.33,0.5,0.66,0.76,1
			c0.04,0.04,0.08,0.1,0.12,0.17c0.26,0.31,0.52,0.64,0.79,0.95c0.04,0.06,0.08,0.1,0.12,0.17c0.27,0.31,0.55,0.64,0.83,0.97
			c0.02,0.02,0.05,0.06,0.08,0.08c2.5,2.86,5.33,5.55,8.49,8.06h0.01l0,0c0.38-0.31,0.78-0.62,1.16-0.93c0-0.02,0.01-0.02,0.02-0.02
			c2.68-2.24,5.12-4.62,7.28-7.11c0.01-0.02,0.03-0.04,0.05-0.06c0.28-0.31,0.55-0.64,0.82-0.97c0.04-0.04,0.09-0.1,0.13-0.17
			c0.26-0.31,0.51-0.62,0.76-0.93c0.05-0.06,0.11-0.12,0.17-0.21c0.24-0.31,0.48-0.62,0.71-0.93c0.04-0.06,0.09-0.12,0.14-0.19
			c0.24-0.33,0.47-0.64,0.69-0.97c0.03-0.04,0.06-0.08,0.09-0.12c0.98-1.41,1.89-2.84,2.7-4.29c0.05-0.1,0.1-0.21,0.16-0.29
			c0.16-0.29,0.3-0.56,0.46-0.85c0.07-0.15,0.14-0.27,0.22-0.41c0.13-0.27,0.27-0.54,0.39-0.79c0.08-0.17,0.17-0.33,0.24-0.5
			c0.12-0.27,0.24-0.52,0.35-0.77c0.08-0.19,0.17-0.35,0.24-0.54c0.1-0.25,0.22-0.5,0.31-0.75c0.08-0.19,0.16-0.37,0.24-0.58
			c0.09-0.23,0.19-0.48,0.28-0.71c0.03-0.1,0.06-0.19,0.09-0.27c-0.96,0.23-1.91,0.37-2.84,0.37c-3.96,0-8.66-1.45-8.66-8.35v-0.21
			c0-5.97,3.81-8.64,12.34-8.64h1.62c-0.01-0.02-0.01-0.04-0.01-0.08c-0.01-0.19-0.03-0.37-0.04-0.56
			c-0.03-0.27-0.05-0.56-0.08-0.83c-0.02-0.21-0.04-0.41-0.07-0.6c-0.03-0.27-0.06-0.54-0.1-0.81c-0.03-0.21-0.06-0.41-0.09-0.6
			c-0.04-0.27-0.08-0.54-0.13-0.79c-0.03-0.21-0.07-0.41-0.11-0.62c-0.04-0.25-0.1-0.52-0.16-0.77c-0.04-0.21-0.09-0.41-0.13-0.6
			c-0.06-0.25-0.12-0.5-0.19-0.75c-0.53-0.1-1.13-0.15-1.78-0.15c-3.33,0-6.79,0.23-8.46,0.44h-0.25c-0.48,0-0.61-0.15-0.61-0.56
			v-3.33c0-0.3,0.08-0.62,0.72-0.78c1.89-0.37,4.9-0.82,8.6-0.82c0.04,0,0.07,0,0.11,0c-0.01-0.04-0.03-0.07-0.04-0.11
			c-0.08-0.19-0.16-0.38-0.24-0.57c-0.09-0.25-0.21-0.5-0.31-0.75c-0.08-0.18-0.16-0.36-0.24-0.54c-0.11-0.26-0.24-0.51-0.35-0.77
			c-0.08-0.17-0.17-0.33-0.24-0.5c-0.13-0.26-0.27-0.52-0.4-0.79c-0.07-0.15-0.14-0.29-0.23-0.44c-0.15-0.28-0.29-0.56-0.45-0.83
			c-0.06-0.11-0.12-0.23-0.19-0.34c-0.18-0.31-0.35-0.61-0.53-0.92c-0.01-0.01-0.01-0.02-0.02-0.03c-0.9-1.51-1.9-3-2.98-4.45
			c-0.02-0.05-0.06-0.09-0.09-0.15c-0.25-0.32-0.49-0.64-0.75-0.96c-0.04-0.06-0.09-0.11-0.13-0.18c-0.25-0.32-0.51-0.63-0.78-0.95
			c-0.04-0.05-0.08-0.1-0.13-0.17c-0.27-0.32-0.54-0.64-0.82-0.96c-0.03-0.03-0.06-0.07-0.09-0.1c-2.5-2.85-5.33-5.54-8.48-8.05
			c-0.01,0-0.01-0.01-0.01-0.01c-0.39,0.32-0.78,0.63-1.16,0.95C154.79,26.25,154.79,26.26,154.78,26.27z M157.96,49.7v3.01
			c0,0.44-0.18,0.66-0.51,0.66h-0.16c-1.48-0.21-5.16-0.56-8.12-0.56c-1.93,0-3.89,0.29-3.89,2.49c0,1.08,1.03,1.7,2.23,2.4
			l6.8,4.16c4.44,2.69,4.82,5.34,4.82,7.6c0,4.79-3.77,7.77-9.84,7.77c-2.15,0-6.38-0.27-9.21-1.04c-0.49-0.12-0.74-0.42-0.74-0.87
			v-3.11c0-0.25,0.23-0.52,0.56-0.52h0.17c2.49,0.31,7.15,0.58,8.75,0.58c3.52,0,4.01-1.37,4.01-2.82c0-1.2-0.79-1.88-2.43-2.92
			c0,0-7.11-4.35-7.11-4.37c-2.63-1.6-4.21-4.16-4.21-6.88c0-5.01,3.12-7.45,9.53-7.45c4.07,0,5.88,0.36,8.67,0.96
			C157.74,48.95,157.96,49.23,157.96,49.7z"/>
		<path fill="#FFFFFF" d="M173.93,49.09c0.08,0.23,0.17,0.47,0.25,0.69C174.09,49.56,174.01,49.32,173.93,49.09z"/>
		<path fill="#FFFFFF" d="M174.98,52.43c0.05,0.19,0.1,0.39,0.16,0.6C175.08,52.82,175.03,52.61,174.98,52.43z"/>
		<path fill="#FFFFFF" d="M176.3,60.92c0.01,0.17,0.02,0.31,0.03,0.48C176.32,61.23,176.31,61.09,176.3,60.92z"/>
		<path fill="#FFFFFF" d="M175.13,72.63c-0.05,0.19-0.1,0.37-0.15,0.58C175.03,73,175.08,72.81,175.13,72.63z"/>
		<path fill="#FFFFFF" d="M174.73,74.12c-0.1,0.31-0.2,0.62-0.3,0.95C174.53,74.74,174.62,74.43,174.73,74.12z"/>
		<path fill="#FFFFFF" d="M173.7,48.47c-0.07-0.2-0.16-0.4-0.24-0.61l0,0C173.55,48.07,173.63,48.27,173.7,48.47z"/>
		<path fill="#FFFFFF" d="M174.18,75.82c-0.07,0.23-0.16,0.46-0.24,0.71C174.02,76.27,174.11,76.05,174.18,75.82z"/>
		<path fill="#FFFFFF" d="M174.45,50.63c0.1,0.33,0.2,0.64,0.3,0.97C174.65,51.27,174.55,50.96,174.45,50.63z"/>
		<path fill="#FFFFFF" d="M176.34,63.97c0.01-0.39,0.01-0.77,0.01-1.14c0,0.37-0.01,0.75-0.02,1.14H176.34z"/>
		<path fill="#FFFFFF" d="M173.8,76.87c0,0,0,0,0.01,0c0.04-0.12,0.08-0.25,0.12-0.35C173.9,76.63,173.86,76.75,173.8,76.87z"/>
		<path fill="#FFFFFF" d="M175.13,72.63c0.04-0.19,0.09-0.37,0.13-0.54l0,0C175.21,72.26,175.17,72.44,175.13,72.63z"/>
		<path fill="#FFFFFF" d="M176.26,60.05L176.26,60.05c0.02,0.29,0.03,0.58,0.04,0.87C176.29,60.63,176.28,60.34,176.26,60.05z"/>
		<path fill="#FFFFFF" d="M174.99,73.21c-0.08,0.29-0.18,0.6-0.26,0.91C174.81,73.81,174.9,73.5,174.99,73.21z"/>
		<path fill="#FFFFFF" d="M174.75,51.6c0.07,0.27,0.16,0.54,0.23,0.83C174.9,52.14,174.82,51.87,174.75,51.6z"/>
		<path fill="#FFFFFF" d="M176.33,61.4c0.01,0.48,0.02,0.93,0.02,1.43C176.35,62.33,176.34,61.88,176.33,61.4z"/>
		<path fill="#FFFFFF" d="M175.13,53.03c0,0,0,0,0,0.02c0,0,0,0,0.01,0C175.13,53.03,175.13,53.03,175.13,53.03z"/>
		<path fill="#FFFFFF" d="M173.7,48.47c0.08,0.21,0.16,0.41,0.23,0.62C173.86,48.89,173.78,48.68,173.7,48.47z"/>
		<path fill="#FFFFFF" d="M174.18,49.79c0.09,0.28,0.19,0.57,0.27,0.84C174.36,50.36,174.27,50.07,174.18,49.79z"/>
		<path fill="#FFFFFF" d="M174.43,75.07c-0.08,0.25-0.16,0.5-0.25,0.75C174.27,75.57,174.34,75.32,174.43,75.07z"/>
	</g>
</g>
</svg>
